<svg xmlns="http://www.w3.org/2000/svg" id="Layer_1" viewBox="0 0 257.7 226"><style>.st0{fill:#fff}</style><path d="M12.4 191.4c6.5 0 10.9 5 10.9 11.7s-4.4 11.7-10.9 11.7-10.9-5-10.9-11.7 4.4-11.7 10.9-11.7zm0 3c-4.6 0-7.6 3.7-7.6 8.7 0 5 2.9 8.7 7.6 8.7 4.6 0 7.6-3.7 7.6-8.7 0-5-3-8.7-7.6-8.7zm17.2-2.7h14.5v3H32.8v6.6h11.1v3H32.8v10.1h-3.2v-22.7zm30.2 11.4c0-7 4.9-11.7 11.1-11.7 4.3 0 6.9 2.1 8.6 4.8l-2.8 1.5c-1.1-1.9-3.3-3.3-5.8-3.3-4.4 0-7.8 3.6-7.8 8.7s3.4 8.7 7.8 8.7c2.6 0 4.7-1.4 5.8-3.3l2.8 1.5c-1.7 2.7-4.3 4.8-8.6 4.8-6.1 0-11.1-4.7-11.1-11.7zm32.7 2.6h-4.1v8.7h-3.2v-22.7h9.1c4.1 0 6.9 2.8 6.9 7 0 4.1-2.6 6.3-5.4 6.6l5.5 9.1h-3.8l-5-8.7zm1.4-11h-5.5v8h5.5c2.3 0 4-1.6 4-4s-1.7-4-4-4zm13.7-3h14.5v3h-11.3v6.6h11.1v3h-11.1v7.1h11.3v3h-14.5v-22.7zm34.7 18h-10.6l-1.8 4.7h-3.6l8.6-22.7h4.1l8.6 22.7H144l-1.7-4.7zm-9.7-3h8.7l-4.4-12-4.3 12zm23.1-12H149v-3h16.7v3H159v19.7h-3.2v-19.7zm15.7-3h3.2v22.7h-3.2v-22.7zm8.2 0h3.7l6.9 19 6.9-19h3.7l-8.6 22.7h-4.1l-8.5-22.7zm26.2 0h3.2v22.7h-3.2v-22.7zm15.7 3h-6.7v-3h16.6v3h-6.7v19.7h-3.2v-19.7zm22 10.2l-8.5-13.2h3.7l6.4 10.1 6.3-10.1h3.8l-8.4 13.2v9.5h-3.2v-9.5zm-32.3-103.5c0-2.2-1.6-3.6-3.7-3.6h-5.2v7.2h5.2c2.2 0 3.7-1.4 3.7-3.6zm-30.7 7.7h7.8l-3.9-10.8z" class="st0"/><path d="M242.8 110.9c0-37.6-22.8-64.8-58-64.8-35.6 0-58 27.1-58 64.8 0 37.2 22.4 64.8 58 64.8 35.2-.1 58-27.6 58-64.8zm-98.2-3.3v9.4h-3.8v-9.4l-8.4-13.3h4.3l6 9.7 5.9-9.7h4.4l-8.4 13.3zm26.5-9.8h-11v5.9h10.8v3.5H160v6.3h11v3.5h-14.8V94.3H171v3.5zM191 117l-1.6-4.4h-9.9l-1.6 4.4h-4.3l8.5-22.7h4.7l8.5 22.7H191zm19.9 0l-4.8-8.5h-3.8v8.5h-3.8V94.3h9.5c4.3 0 7.1 2.9 7.1 7.1 0 4-2.5 6.2-5.1 6.7l5.3 8.9h-4.4zm7.5-3.2l2.1-3.1c1.5 1.7 3.8 3.1 6.8 3.1 3.1 0 4.3-1.6 4.3-3.1 0-2-2.3-2.7-4.9-3.4-3.5-.9-7.7-2-7.7-6.8 0-3.7 3.1-6.6 7.9-6.6 3.4 0 6.1 1.1 8.1 3.2l-2.2 3c-1.7-1.8-4-2.6-6.3-2.6-2.2 0-3.7 1.1-3.7 2.8 0 1.8 2.2 2.3 4.8 3 3.6 1 7.8 2.1 7.8 7 0 3.8-2.5 7-8.4 7-3.8.1-6.7-1.4-8.6-3.5z" class="st0"/><path d="M95.9 118.2v68.2l81.8-.3c-35.9-3.3-59.2-31.5-62-67.8H95.9zm-11.2-100l-66.7 88h66.7z" class="st0"/><path d="M85.2 118.2H2v-8.9L84.4.7l-82.6.4v185.7l83.4-.4zM95.9.7v106.4h19.7c1.6-40.4 28.1-71.7 69.3-71.7 42.2 0 69.4 33.3 69.4 75.5 0 39.6-23.8 71.3-61.6 75.1l62.5-.3V0L95.9.7z" class="st0"/></svg>